<?xml version="1.0" encoding="UTF-8"?>
<svg xmlns="http://www.w3.org/2000/svg" viewBox="0 0 512 512" width="512" height="512">
  <defs>
    <linearGradient id="netbird-gradient" x1="0%" y1="0%" x2="100%" y2="100%">
      <stop offset="0%" style="stop-color:#f97316"/>
      <stop offset="100%" style="stop-color:#ea580c"/>
    </linearGradient>
  </defs>
  <!-- Background circle -->
  <circle cx="256" cy="256" r="240" fill="url(#netbird-gradient)"/>
  <!-- Stylized bird/network icon -->
  <g fill="#ffffff">
    <!-- Main bird body -->
    <path d="M160 200 L256 120 L352 200 L352 280 L256 360 L160 280 Z" fill="none" stroke="#ffffff" stroke-width="24" stroke-linejoin="round"/>
    <!-- Network nodes -->
    <circle cx="160" cy="200" r="24"/>
    <circle cx="352" cy="200" r="24"/>
    <circle cx="256" cy="120" r="24"/>
    <circle cx="160" cy="280" r="24"/>
    <circle cx="352" cy="280" r="24"/>
    <circle cx="256" cy="360" r="24"/>
    <!-- Center node -->
    <circle cx="256" cy="240" r="32"/>
    <!-- Connection lines to center -->
    <line x1="256" y1="120" x2="256" y2="208" stroke="#ffffff" stroke-width="8"/>
    <line x1="160" y1="200" x2="224" y2="240" stroke="#ffffff" stroke-width="8"/>
    <line x1="352" y1="200" x2="288" y2="240" stroke="#ffffff" stroke-width="8"/>
    <line x1="160" y1="280" x2="224" y2="240" stroke="#ffffff" stroke-width="8"/>
    <line x1="352" y1="280" x2="288" y2="240" stroke="#ffffff" stroke-width="8"/>
    <line x1="256" y1="360" x2="256" y2="272" stroke="#ffffff" stroke-width="8"/>
  </g>
</svg>
